# xmcd
#
# Track frame offsets:
#	150
#	17995
#	35520
#
# Disc length: 695 seconds
#
# Revision: 3
# Processed by: cddbd v1.5.2PL0 Copyright (c) Steve Scherf et al.
# Submitted via: dBpowerAMP V4.0
#
DISCID=1e02b503
DTITLE=Groove Theory - Tell Me
DYEAR=1994
DGENRE=R and B
TTITLE0=Tell Me (LP Version)
TTITLE1=Tell Me (Instrumental)
TTITLE2=Tell Me (Acappella)
EXTD=New Entry
EXTT0=
EXTT1=
EXTT2=
PLAYORDER=
